
<svg xmlns="http://www.w3.org/2000/svg" width="539.191" height="85.04" viewBox="0 0 539.191 85.04">
  <g id="Group_16" data-name="Group 16" transform="translate(-38.133 -1021.122)">
    <path id="Path_16" data-name="Path 16" d="M176.051,1070.981v7.671c0,9.239-4.618,14.516-13.528,14.516S149,1087.891,149,1078.652v-30.018c0-9.237,4.622-14.517,13.523-14.517s13.528,5.28,13.528,14.517v5.6h-8.575v-6.184c0-4.122-1.817-5.69-4.7-5.69s-4.7,1.568-4.7,5.69v31.175c0,4.127,1.816,5.609,4.7,5.609s4.7-1.482,4.7-5.609v-8.248Z" fill="#fff"/>
    <path id="Path_17" data-name="Path 17" d="M202.608,1092.506c-.493-1.48-.824-2.391-.824-7.093v-9.07c0-5.362-1.813-7.342-5.937-7.342h-3.133v23.505h-9.075v-57.729h13.69c9.406,0,13.443,4.373,13.443,13.277v4.538c0,5.939-1.9,9.814-5.937,11.71,4.537,1.9,6.022,6.266,6.022,12.29v8.906c0,2.8.082,4.864.986,7.008Zm-9.894-49.483v17.734h3.542c3.382,0,5.446-1.486,5.446-6.1v-5.691c0-4.124-1.4-5.938-4.615-5.938Z" fill="#fff"/>
    <path id="Path_18" data-name="Path 18" d="M227.933,1059.106h12.45v8.249h-12.45v16.905H243.6v8.246H218.86v-57.729H243.6v8.246H227.933Z" fill="#fff"/>
    <path id="Path_19" data-name="Path 19" d="M281.451,1092.506H272.3l-1.567-10.475H259.6l-1.57,10.475H249.7l9.239-57.729h13.274Zm-20.7-18.31h8.743L265.122,1045Z" fill="#fff"/>
    <path id="Path_20" data-name="Path 20" d="M281.819,1034.777h28.037v8.246h-9.481v49.483H291.3v-49.483h-9.479Z" fill="#fff"/>
    <path id="Path_21" data-name="Path 21" d="M316.694,1034.777h9.071v57.729h-9.071Z" fill="#fff"/>
    <path id="Path_22" data-name="Path 22" d="M348.116,1081.869l6.928-47.092h8.333l-8.908,57.729H340.941l-8.9-57.729h9.151Z" fill="#fff"/>
    <path id="Path_23" data-name="Path 23" d="M398.578,1092.506h-9.155l-1.564-10.475H376.722l-1.569,10.475h-8.326l9.233-57.729h13.281Zm-20.7-18.31h8.742L382.246,1045Z" fill="#fff"/>
    <path id="Path_24" data-name="Path 24" d="M425.626,1075.765l6.188-40.988h12.615v57.729h-8.573v-41.4l-6.273,41.4h-8.577l-6.763-40.823v40.823h-7.916v-57.729h12.62Z" fill="#fff"/>
    <path id="Path_25" data-name="Path 25" d="M461.351,1059.106H473.8v8.249h-12.45v16.905h15.665v8.246H452.278v-57.729h24.738v8.246H461.351Z" fill="#fff"/>
    <path id="Path_26" data-name="Path 26" d="M491.954,1050.692v41.814h-8.162v-57.729h11.379l9.32,34.557v-34.557h8.083v57.729h-9.319Z" fill="#fff"/>
    <path id="Path_27" data-name="Path 27" d="M518.516,1034.777h28.04v8.246h-9.482v49.483H528v-49.483h-9.488Z" fill="#fff"/>
    <path id="Path_28" data-name="Path 28" d="M561.654,1059.106H574.1v8.249h-12.45v16.905h15.67v8.246H552.582v-57.729h24.742v8.246h-15.67Z" fill="#fff"/>
    <g id="Group_4" data-name="Group 4">
      <path id="Path_29" data-name="Path 29" d="M109.6,1076.734a16.677,16.677,0,0,1-4.585-9.595,31.948,31.948,0,0,1,.133-6.008,1.89,1.89,0,0,1,2.308-1.745,1.959,1.959,0,0,1,1.584,2.435c-.027.238-.094.475-.13.712-.994,6.4,2.9,13.194,9.186,14.684a26.558,26.558,0,0,0,8.994.581,8.617,8.617,0,0,0,3.5-1.106,9.716,9.716,0,0,0,4.7-9.214,10.067,10.067,0,0,0-5.779-8.994c-2.316-1.22-2.5-2.134-.854-4.163a7.732,7.732,0,0,0,1.238-8.067,7.239,7.239,0,0,0-5.718-4.664,1.722,1.722,0,0,0-2.04.932,32.658,32.658,0,0,1-3.483,4.308,9.247,9.247,0,0,1-7.555,2.834,17.546,17.546,0,0,1-7.423-2.336,1.988,1.988,0,0,1-.988-2.837c.584-1.041,1.654-1.23,2.94-.652a29.866,29.866,0,0,0,4.142,1.619,5.925,5.925,0,0,0,6.571-1.9,25.841,25.841,0,0,0,3.578-5.394,7.7,7.7,0,0,0-4.679-10.65,7.943,7.943,0,0,0-6.1.475,1.962,1.962,0,0,1-2.959-1.088c-.187-.4-.333-.822-.534-1.217-1.786-3.505-5.11-5.188-8.677-4.319a8.163,8.163,0,0,0-6.1,7.867c.087,19.584.034,39.171.053,58.755,0,2.935.047,5.875.265,8.8a9.4,9.4,0,0,0,5.276,8.129c5.365,2.748,13.553,1.2,15.592-7.061.42-1.7,1.341-2.143,3.044-1.809a13.871,13.871,0,0,0,3.934.353c7.931-.752,10.782-8.168,8.964-13.759a1.3,1.3,0,0,0-.95-.761,30.258,30.258,0,0,1-12.134-1.568,3.016,3.016,0,0,0-.947-.153,12.045,12.045,0,0,0-11.4,8.043c-.538,1.48-1.542,2.108-2.7,1.687s-1.591-1.574-1.047-3.026a15.793,15.793,0,0,1,8.95-9.456C108.323,1077.177,108.892,1076.991,109.6,1076.734Zm-38.936-26.649c.2.156.563.408.893.692,2.776,2.387,5.294,4.916,5.921,8.781.35,2.148-.068,2.644-2.16,1.95a2.547,2.547,0,0,1-1.326-1.193,17.491,17.491,0,0,0-10.244-9.193c-1.065-.369-2.143-.691-3.218-1.03a15.642,15.642,0,0,1-9.168-7.235c-.919-1.584-.926-1.593-2.741-1.1a7.819,7.819,0,0,0-3.579,12.834c1.357,1.566,1.087,2.737-.732,3.742a14.419,14.419,0,0,0-2.975,2.041,10.508,10.508,0,0,0,3.356,17.266c1.794.739,2.155,1.629,1.38,3.405-.209.481-.42.961-.584,1.459-1.976,6.051,1.444,12.388,7.388,13.671,4.341.94,8.139-.447,11.565-2.968a9.935,9.935,0,0,0,4.044-10.858c-1.13-5.119-4.418-9.906-11.792-9.359a2.006,2.006,0,0,1-2.163-1.7,1.948,1.948,0,0,1,1.585-2.22,6.25,6.25,0,0,1,1.317-.153,15.177,15.177,0,0,1,14.909,18.509c-1.149,5.181-4.46,8.621-9,11.051-.484.257-.976.505-1.449.749,1.562,4.546,5.508,7.08,10.606,6.9a9.839,9.839,0,0,0,9.454-7.445,20.94,20.94,0,0,0,.592-4.891q.054-32.406.02-64.812a7.736,7.736,0,0,0-.126-1.558,8.058,8.058,0,0,0-7.257-6.262c-3.131-.314-6.2,1.768-7.669,5.205-.884,2.06-1.594,2.339-3.637,1.415a7.78,7.78,0,0,0-10.81,5.466c-.5,2.271.286,4.229,1.06,6.287,2.274,6.055,11.5,10.239,17.788,4.785a26.079,26.079,0,0,0,2.451-2.658,2.062,2.062,0,0,1,2.787-.533,1.93,1.93,0,0,1,.426,2.867,10.428,10.428,0,0,1-1.783,2.118C74.131,1047.485,72.385,1048.757,70.659,1050.085Z" fill="#fff" fill-rule="evenodd"/>
      <path id="Path_30" data-name="Path 30" d="M109.6,1076.734c-.7.257-1.272.443-1.824.67a15.793,15.793,0,0,0-8.95,9.456c-.544,1.452-.114,2.606,1.047,3.026s2.158-.207,2.7-1.687a12.045,12.045,0,0,1,11.4-8.043,3.016,3.016,0,0,1,.947.153,30.258,30.258,0,0,0,12.134,1.568,1.3,1.3,0,0,1,.95.761c1.818,5.591-1.033,13.007-8.964,13.759a13.871,13.871,0,0,1-3.934-.353c-1.7-.334-2.624.112-3.044,1.809-2.039,8.257-10.227,9.809-15.592,7.061a9.4,9.4,0,0,1-5.276-8.129c-.218-2.926-.262-5.866-.265-8.8-.019-19.584.034-39.171-.053-58.755a8.163,8.163,0,0,1,6.1-7.867c3.567-.869,6.891.814,8.677,4.319.2.4.347.816.534,1.217a1.962,1.962,0,0,0,2.959,1.088,7.943,7.943,0,0,1,6.1-.475,7.7,7.7,0,0,1,4.679,10.65,25.841,25.841,0,0,1-3.578,5.394,5.925,5.925,0,0,1-6.571,1.9,29.866,29.866,0,0,1-4.142-1.619c-1.286-.578-2.356-.389-2.94.652a1.988,1.988,0,0,0,.988,2.837,17.546,17.546,0,0,0,7.423,2.336,9.247,9.247,0,0,0,7.555-2.834,32.658,32.658,0,0,0,3.483-4.308,1.722,1.722,0,0,1,2.04-.932,7.239,7.239,0,0,1,5.718,4.664,7.732,7.732,0,0,1-1.238,8.067c-1.649,2.029-1.462,2.943.854,4.163a10.067,10.067,0,0,1,5.779,8.994,9.716,9.716,0,0,1-4.7,9.214,8.617,8.617,0,0,1-3.5,1.106,26.558,26.558,0,0,1-8.994-.581c-6.282-1.49-10.18-8.284-9.186-14.684.036-.237.1-.474.13-.712a1.959,1.959,0,0,0-1.584-2.435,1.89,1.89,0,0,0-2.308,1.745,31.948,31.948,0,0,0-.133,6.008A16.677,16.677,0,0,0,109.6,1076.734Z" fill="#fff" fill-rule="evenodd"/>
    </g>
  </g>
</svg>
