<svg id="Group_23" data-name="Group 23" xmlns="http://www.w3.org/2000/svg" width="53.849" height="47.131" viewBox="0 0 53.849 47.131">
  <path id="Path_29" data-name="Path 29" d="M77.739,1051.943a9.242,9.242,0,0,1-2.541-5.318,17.708,17.708,0,0,1,.074-3.33,1.048,1.048,0,0,1,1.279-.967,1.086,1.086,0,0,1,.878,1.349c-.015.132-.052.263-.072.395-.551,3.547,1.609,7.313,5.091,8.138a14.727,14.727,0,0,0,4.985.322,4.777,4.777,0,0,0,1.941-.613,5.385,5.385,0,0,0,2.6-5.107,5.58,5.58,0,0,0-3.2-4.985c-1.284-.676-1.387-1.183-.473-2.307a4.286,4.286,0,0,0,.686-4.471,4.012,4.012,0,0,0-3.169-2.585.955.955,0,0,0-1.131.517,18.106,18.106,0,0,1-1.93,2.387,5.126,5.126,0,0,1-4.187,1.571,9.725,9.725,0,0,1-4.114-1.295,1.1,1.1,0,0,1-.548-1.572c.324-.577.917-.682,1.629-.361a16.57,16.57,0,0,0,2.3.9,3.284,3.284,0,0,0,3.642-1.055,14.325,14.325,0,0,0,1.983-2.99,4.265,4.265,0,0,0-2.593-5.9,4.4,4.4,0,0,0-3.382.263,1.088,1.088,0,0,1-1.64-.6c-.1-.222-.185-.455-.3-.674a4.172,4.172,0,0,0-4.809-2.394,4.524,4.524,0,0,0-3.378,4.36c.048,10.854.019,21.71.029,32.563,0,1.627.026,3.256.147,4.878a5.212,5.212,0,0,0,2.924,4.505,5.921,5.921,0,0,0,8.641-3.913c.233-.941.743-1.188,1.687-1a7.694,7.694,0,0,0,2.18.2,5.722,5.722,0,0,0,4.968-7.625.722.722,0,0,0-.527-.422,16.772,16.772,0,0,1-6.725-.869,1.672,1.672,0,0,0-.525-.085,6.676,6.676,0,0,0-6.318,4.458c-.3.82-.855,1.168-1.494.935s-.882-.872-.58-1.677a8.753,8.753,0,0,1,4.96-5.241C77.034,1052.189,77.349,1052.086,77.739,1051.943ZM56.16,1037.174c.112.086.312.226.495.383,1.539,1.323,2.934,2.725,3.282,4.867.194,1.19-.038,1.465-1.2,1.081a1.411,1.411,0,0,1-.735-.661,9.694,9.694,0,0,0-5.677-5.095c-.59-.2-1.188-.383-1.783-.571a8.668,8.668,0,0,1-5.081-4.01c-.509-.878-.513-.883-1.519-.611a4.334,4.334,0,0,0-1.984,7.113c.752.868.6,1.517-.406,2.074a7.99,7.99,0,0,0-1.649,1.131,5.824,5.824,0,0,0,1.86,9.569c.994.41,1.194.9.765,1.887-.116.267-.233.533-.324.809a5.789,5.789,0,0,0,4.095,7.577,7.73,7.73,0,0,0,6.41-1.645,5.507,5.507,0,0,0,2.241-6.018c-.626-2.837-2.449-5.49-6.535-5.187a1.112,1.112,0,0,1-1.2-.942,1.08,1.08,0,0,1,.878-1.23,3.475,3.475,0,0,1,.73-.085,8.412,8.412,0,0,1,8.263,10.258,9.046,9.046,0,0,1-4.99,6.125c-.268.142-.541.28-.8.415a5.629,5.629,0,0,0,5.878,3.822,5.453,5.453,0,0,0,5.24-4.126,11.6,11.6,0,0,0,.328-2.711q.03-17.96.011-35.92a4.285,4.285,0,0,0-.07-.864,4.466,4.466,0,0,0-4.022-3.471,4.34,4.34,0,0,0-4.25,2.885c-.49,1.142-.883,1.3-2.016.784a4.312,4.312,0,0,0-5.991,3.03,5.948,5.948,0,0,0,.587,3.484c1.26,3.356,6.374,5.675,9.859,2.652a14.457,14.457,0,0,0,1.358-1.473,1.143,1.143,0,0,1,1.545-.3,1.069,1.069,0,0,1,.236,1.589,5.774,5.774,0,0,1-.988,1.174C58.084,1035.733,57.116,1036.438,56.16,1037.174Z" transform="translate(-38.133 -1021.122)" fill="#fff" fill-rule="evenodd"/>
  <path id="Path_30" data-name="Path 30" d="M100.7,1051.95c-.369.142-.668.246-.958.371a8.573,8.573,0,0,0-4.7,5.241c-.286.8-.06,1.444.55,1.677s1.133-.115,1.416-.935a6.356,6.356,0,0,1,5.988-4.458,1.506,1.506,0,0,1,.5.085,15.12,15.12,0,0,0,6.373.869c.162-.011.442.236.5.422.955,3.1-.543,7.209-4.708,7.626a6.92,6.92,0,0,1-2.066-.2c-.895-.185-1.378.062-1.6,1a5.543,5.543,0,0,1-8.19,3.913,5.235,5.235,0,0,1-2.771-4.505c-.115-1.622-.138-3.251-.139-4.878-.01-10.854.018-21.71-.028-32.564a4.49,4.49,0,0,1,3.2-4.36,3.9,3.9,0,0,1,4.558,2.394c.106.219.182.452.28.675a1.013,1.013,0,0,0,1.554.6,3.974,3.974,0,0,1,3.205-.263,4.333,4.333,0,0,1,2.458,5.9,14.406,14.406,0,0,1-1.879,2.99,3.014,3.014,0,0,1-3.451,1.055,15.208,15.208,0,0,1-2.176-.9c-.675-.32-1.237-.216-1.544.361a1.128,1.128,0,0,0,.519,1.572,8.877,8.877,0,0,0,3.9,1.295,4.719,4.719,0,0,0,3.968-1.571,17.947,17.947,0,0,0,1.829-2.388c.294-.449.547-.631,1.072-.516a3.856,3.856,0,0,1,3,2.585,4.473,4.473,0,0,1-.65,4.471c-.866,1.125-.768,1.631.449,2.307a5.606,5.606,0,0,1,3.035,4.985,5.477,5.477,0,0,1-2.467,5.107,4.358,4.358,0,0,1-1.84.613,13.236,13.236,0,0,1-4.724-.322c-3.3-.826-5.347-4.591-4.825-8.138.019-.131.054-.263.068-.395.079-.743-.229-1.24-.832-1.349a1,1,0,0,0-1.212.967,18.679,18.679,0,0,0-.07,3.33A9.462,9.462,0,0,0,100.7,1051.95Z" transform="translate(-60.353 -1021.129)" fill="#fff" fill-rule="evenodd"/>
</svg>
